<?xml version="1.0" encoding="utf-8"?>
<!-- Generator: Adobe Adobe Illustrator 29.2.0, SVG Export Plug-In . SVG Version: 6.00 Build 0)  -->
<svg version="1.1" id="Layer_1" xmlns="http://www.w3.org/2000/svg" xmlns:xlink="http://www.w3.org/1999/xlink" x="0px" y="0px"
	 viewBox="0 0 500 160" style="enable-background:new 0 0 500 160;" xml:space="preserve">
<style type="text/css">
	.st0{fill:#D8D5D6;}
	.st1{fill:#B8B6B8;}
</style>
<g>
	<g>
		<g>
			<path class="st0" d="M81.97,22.75v114.5c0,1.57,1.22,2.82,2.67,2.75c29.5-1.51,53-27.79,53-60s-23.49-58.49-53-60
				C83.19,19.93,81.97,21.18,81.97,22.75z"/>
		</g>
		<g>
			<path class="st1" d="M75.67,137.25V22.75c0-1.57-1.22-2.82-2.67-2.75c-29.5,1.51-53,27.79-53,60s23.49,58.49,53,60
				C74.45,140.07,75.67,138.82,75.67,137.25z"/>
		</g>
	</g>
	<g>
		<path d="M162.41,105.59c-0.48,0-0.89-0.17-1.23-0.51c-0.34-0.34-0.51-0.75-0.51-1.24V56.22c0-0.49,0.17-0.9,0.51-1.24
			c0.34-0.34,0.75-0.51,1.23-0.51h6.73c0.48,0,0.89,0.17,1.23,0.51c0.34,0.34,0.51,0.76,0.51,1.24V96.9h22.95
			c0.53,0,0.97,0.17,1.3,0.51c0.34,0.34,0.51,0.78,0.51,1.31v5.11c0,0.49-0.17,0.9-0.51,1.24c-0.34,0.34-0.77,0.51-1.3,0.51H162.41z
			"/>
		<path d="M217.87,106.32c-3.86,0-7.11-0.68-9.74-2.04c-2.63-1.36-4.63-3.29-6.01-5.77c-1.38-2.48-2.16-5.38-2.35-8.69
			c-0.05-0.88-0.07-1.95-0.07-3.21c0-1.27,0.02-2.34,0.07-3.21c0.19-3.36,1-6.27,2.43-8.73c1.42-2.46,3.45-4.37,6.08-5.73
			c2.63-1.36,5.83-2.04,9.59-2.04c3.76,0,6.96,0.68,9.59,2.04c2.63,1.36,4.66,3.28,6.08,5.73c1.42,2.46,2.23,5.37,2.42,8.73
			c0.05,0.88,0.07,1.95,0.07,3.21c0,1.27-0.02,2.34-0.07,3.21c-0.19,3.31-0.98,6.21-2.35,8.69c-1.38,2.48-3.38,4.41-6.01,5.77
			C224.97,105.64,221.73,106.32,217.87,106.32z M217.87,99.09c2.56,0,4.54-0.81,5.94-2.45c1.4-1.63,2.17-4.03,2.32-7.19
			c0.05-0.73,0.07-1.68,0.07-2.85c0-1.17-0.02-2.12-0.07-2.85c-0.14-3.16-0.92-5.56-2.32-7.19c-1.4-1.63-3.38-2.45-5.94-2.45
			s-4.54,0.82-5.94,2.45c-1.4,1.63-2.17,4.03-2.32,7.19c-0.05,0.73-0.07,1.68-0.07,2.85c0,1.17,0.02,2.12,0.07,2.85
			c0.15,3.17,0.92,5.56,2.32,7.19C213.33,98.27,215.31,99.09,217.87,99.09z"/>
		<path d="M260.36,106.32c-3.47,0-6.53-0.66-9.16-1.97c-2.63-1.31-4.68-3.22-6.15-5.73c-1.47-2.51-2.28-5.54-2.43-9.09
			c-0.05-0.73-0.07-1.69-0.07-2.88c0-1.19,0.02-2.18,0.07-2.96c0.15-3.55,0.95-6.58,2.43-9.09c1.47-2.51,3.52-4.42,6.15-5.73
			c2.63-1.31,5.68-1.97,9.16-1.97c3.09,0,5.72,0.43,7.89,1.28c2.17,0.85,3.96,1.95,5.36,3.29c1.4,1.34,2.45,2.73,3.15,4.16
			c0.7,1.44,1.07,2.74,1.12,3.91c0.05,0.54-0.11,0.96-0.47,1.28c-0.36,0.32-0.79,0.47-1.27,0.47h-6.37c-0.48,0-0.86-0.12-1.12-0.37
			c-0.27-0.24-0.52-0.61-0.76-1.1c-0.72-1.95-1.68-3.32-2.86-4.13c-1.18-0.8-2.69-1.2-4.52-1.2c-2.41,0-4.33,0.77-5.75,2.3
			c-1.42,1.53-2.18,3.96-2.28,7.27c-0.1,1.85-0.1,3.55,0,5.11c0.1,3.36,0.86,5.79,2.28,7.3c1.42,1.51,3.34,2.26,5.75,2.26
			c1.88,0,3.4-0.4,4.56-1.2c1.16-0.8,2.1-2.18,2.82-4.13c0.24-0.49,0.49-0.85,0.76-1.1c0.26-0.24,0.64-0.37,1.12-0.37h6.37
			c0.48,0,0.9,0.16,1.27,0.47c0.36,0.32,0.52,0.74,0.47,1.28c-0.05,0.88-0.28,1.86-0.69,2.96c-0.41,1.1-1.06,2.22-1.95,3.36
			c-0.89,1.14-2.02,2.19-3.37,3.14c-1.35,0.95-2.98,1.72-4.89,2.3C265.08,106.03,262.87,106.32,260.36,106.32z"/>
		<path d="M296.34,106.32c-2.51,0-4.78-0.5-6.8-1.5c-2.03-1-3.63-2.34-4.81-4.02c-1.18-1.68-1.77-3.57-1.77-5.66
			c0-3.41,1.38-6.12,4.13-8.14c2.75-2.02,6.35-3.37,10.79-4.05l9.92-1.46v-1.53c0-2.04-0.51-3.63-1.52-4.75
			c-1.01-1.12-2.75-1.68-5.21-1.68c-1.74,0-3.15,0.35-4.23,1.06c-1.09,0.71-1.89,1.64-2.43,2.81c-0.39,0.63-0.94,0.95-1.66,0.95H287
			c-0.53,0-0.93-0.15-1.19-0.44c-0.27-0.29-0.4-0.68-0.4-1.17c0.05-0.78,0.37-1.73,0.98-2.85c0.6-1.12,1.52-2.2,2.75-3.25
			c1.23-1.05,2.83-1.94,4.81-2.67c1.98-0.73,4.37-1.1,7.17-1.1c3.04,0,5.61,0.38,7.71,1.13c2.1,0.76,3.78,1.77,5.03,3.03
			c1.25,1.27,2.17,2.75,2.75,4.45c0.58,1.7,0.87,3.51,0.87,5.4v22.93c0,0.49-0.17,0.9-0.51,1.24c-0.34,0.34-0.75,0.51-1.23,0.51
			h-5.86c-0.53,0-0.95-0.17-1.27-0.51c-0.31-0.34-0.47-0.75-0.47-1.24v-2.85c-0.63,0.88-1.47,1.73-2.53,2.56
			c-1.06,0.83-2.35,1.5-3.87,2.01C300.21,106.06,298.42,106.32,296.34,106.32z M298.8,99.38c1.69,0,3.22-0.37,4.6-1.1
			c1.38-0.73,2.46-1.86,3.26-3.4c0.8-1.53,1.19-3.47,1.19-5.81v-1.53l-7.24,1.17c-2.85,0.44-4.97,1.14-6.37,2.12
			c-1.4,0.97-2.1,2.17-2.1,3.58c0,1.07,0.33,1.98,0.98,2.74c0.65,0.76,1.48,1.31,2.5,1.68C296.63,99.2,297.69,99.38,298.8,99.38z"/>
		<path d="M328.55,105.59c-0.48,0-0.89-0.17-1.23-0.51c-0.34-0.34-0.51-0.75-0.51-1.24V55.49c0-0.49,0.17-0.9,0.51-1.24
			c0.34-0.34,0.75-0.51,1.23-0.51h6.01c0.48,0,0.89,0.17,1.23,0.51c0.34,0.34,0.51,0.76,0.51,1.24v48.35c0,0.49-0.17,0.9-0.51,1.24
			c-0.34,0.34-0.75,0.51-1.23,0.51H328.55z"/>
		<path d="M362.15,106.32c-5.36,0-9.6-1.56-12.74-4.67c-3.14-3.12-4.83-7.55-5.07-13.29c-0.05-0.49-0.07-1.11-0.07-1.86
			c0-0.75,0.02-1.35,0.07-1.79c0.19-3.7,1.03-6.88,2.5-9.53c1.47-2.65,3.51-4.7,6.12-6.13c2.61-1.44,5.67-2.15,9.19-2.15
			c3.91,0,7.19,0.82,9.85,2.45c2.65,1.63,4.66,3.9,6.01,6.79c1.35,2.9,2.03,6.24,2.03,10.04v1.53c0,0.49-0.17,0.9-0.51,1.24
			c-0.34,0.34-0.77,0.51-1.3,0.51h-24.03c0,0.29,0,0.49,0,0.58c0.05,1.7,0.37,3.27,0.98,4.71c0.6,1.44,1.5,2.59,2.68,3.47
			c1.18,0.88,2.59,1.31,4.23,1.31c1.35,0,2.49-0.21,3.4-0.62c0.92-0.41,1.66-0.89,2.24-1.42c0.58-0.53,0.99-0.97,1.23-1.31
			c0.43-0.58,0.78-0.94,1.05-1.06c0.26-0.12,0.66-0.18,1.19-0.18h6.23c0.48,0,0.88,0.15,1.19,0.44c0.31,0.29,0.45,0.66,0.4,1.1
			c-0.05,0.78-0.45,1.73-1.19,2.85c-0.75,1.12-1.82,2.22-3.22,3.29c-1.4,1.07-3.15,1.96-5.25,2.67
			C367.25,105.97,364.85,106.32,362.15,106.32z M354.18,83.31h16V83.1c0-1.9-0.31-3.57-0.94-5c-0.63-1.44-1.54-2.56-2.75-3.36
			c-1.21-0.8-2.66-1.2-4.34-1.2c-1.69,0-3.14,0.4-4.34,1.2c-1.21,0.8-2.11,1.92-2.71,3.36c-0.6,1.44-0.91,3.1-0.91,5V83.31z"/>
		<path d="M390.31,105.59c-0.48,0-0.89-0.17-1.23-0.51c-0.34-0.34-0.51-0.75-0.51-1.24V56.29c0-0.53,0.17-0.97,0.51-1.31
			c0.34-0.34,0.75-0.51,1.23-0.51h17.66c4.87,0,8.89,0.76,12.05,2.26c3.16,1.51,5.55,3.75,7.17,6.72c1.62,2.97,2.45,6.6,2.5,10.88
			c0.1,2.14,0.15,4.04,0.15,5.7c0,1.66-0.05,3.53-0.15,5.62c-0.1,4.53-0.92,8.26-2.46,11.21c-1.55,2.95-3.87,5.14-6.99,6.57
			c-3.11,1.44-7.08,2.15-11.91,2.15H390.31z M398.63,97.19h9.34c2.7,0,4.9-0.39,6.59-1.17c1.69-0.78,2.93-2.03,3.73-3.76
			c0.8-1.73,1.22-4,1.27-6.83c0.05-1.46,0.08-2.74,0.11-3.83c0.02-1.1,0.02-2.19,0-3.29c-0.02-1.1-0.06-2.35-0.11-3.76
			c-0.1-3.99-1.09-6.94-2.97-8.84c-1.88-1.9-4.88-2.85-8.98-2.85h-8.98V97.19z"/>
		<path d="M441.2,105.59c-0.48,0-0.89-0.17-1.23-0.51c-0.34-0.34-0.51-0.75-0.51-1.24V56.29c0-0.53,0.17-0.97,0.51-1.31
			c0.34-0.34,0.75-0.51,1.23-0.51h20.99c3.91,0,7.1,0.6,9.56,1.79c2.46,1.19,4.28,2.84,5.47,4.93c1.18,2.09,1.77,4.53,1.77,7.3
			c0,1.85-0.33,3.47-0.98,4.86c-0.65,1.39-1.45,2.52-2.39,3.4c-0.94,0.88-1.87,1.56-2.79,2.04c1.88,0.88,3.55,2.34,5,4.38
			c1.45,2.04,2.17,4.48,2.17,7.3c0,2.92-0.65,5.53-1.95,7.81c-1.3,2.29-3.23,4.08-5.79,5.37c-2.56,1.29-5.72,1.94-9.48,1.94H441.2z
			 M449.52,75.43h11.37c2.56,0,4.48-0.62,5.76-1.86c1.28-1.24,1.92-2.86,1.92-4.86c0-2.04-0.64-3.65-1.92-4.82
			c-1.28-1.17-3.2-1.75-5.76-1.75h-11.37V75.43z M449.52,97.85h12.09c2.61,0,4.58-0.72,5.94-2.15c1.35-1.44,2.03-3.18,2.03-5.22
			c0-2.14-0.69-3.92-2.06-5.33c-1.37-1.41-3.34-2.12-5.9-2.12h-12.09V97.85z"/>
	</g>
</g>
</svg>
